<?xml version="1.0" standalone="no"?>
<!DOCTYPE svg PUBLIC "-//W3C//DTD SVG 20010904//EN"
 "http://www.w3.org/TR/2001/REC-SVG-20010904/DTD/svg10.dtd">
<svg version="1.0" xmlns="http://www.w3.org/2000/svg"
 width="954.000000pt" height="1080.000000pt" viewBox="0 0 954.000000 1080.000000"
 preserveAspectRatio="xMidYMid meet">

<g transform="translate(0.000000,1080.000000) scale(0.100000,-0.100000)"
fill="#000000" stroke="none">
<path d="M0 5400 l0 -5400 4770 0 4770 0 0 5400 0 5400 -4770 0 -4770 0 0
-5400z m3940 4954 c144 -91 268 -163 275 -160 8 3 136 77 284 166 l270 160
270 -160 c148 -88 276 -163 284 -165 7 -3 131 69 276 160 l262 165 419 -211
c367 -185 422 -215 444 -248 l26 -37 -25 -253 c-14 -139 -37 -434 -50 -655
-14 -220 -34 -527 -45 -681 l-20 -280 -94 -350 c-51 -192 -96 -371 -99 -397
-4 -30 -25 -80 -57 -136 -28 -49 -52 -98 -54 -109 -3 -11 -30 -71 -63 -134
-32 -63 -59 -117 -61 -121 -2 -5 21 -8 52 -8 42 0 90 -13 197 -52 77 -28 147
-57 154 -65 19 -19 55 -118 66 -183 6 -30 19 -93 29 -138 l20 -84 -45 -216
c-39 -187 -43 -217 -30 -225 8 -4 15 -16 15 -26 0 -10 7 -24 15 -31 8 -7 15
-20 15 -29 1 -9 7 -27 14 -40 12 -21 11 -33 -5 -85 -11 -34 -29 -92 -40 -131
-12 -38 -27 -81 -35 -95 -7 -14 -23 -46 -34 -72 -22 -46 -23 -47 -73 -50 l-50
-3 -17 -55 c-10 -30 -35 -109 -55 -175 -21 -66 -46 -132 -56 -147 -11 -14 -19
-30 -19 -35 0 -4 -9 -25 -20 -46 -11 -21 -18 -42 -15 -47 4 -6 2 -10 -2 -10
-11 0 -34 -100 -27 -112 4 -6 3 -13 -2 -17 -17 -12 -46 -79 -40 -90 4 -6 2
-11 -5 -11 -7 0 -10 -3 -7 -6 9 -8 -12 -77 -30 -97 -8 -9 -12 -20 -9 -23 3 -4
-1 -20 -9 -35 -11 -22 -12 -34 -4 -49 10 -18 -5 -40 -117 -178 -121 -147 -180
-220 -381 -467 -45 -55 -76 -101 -69 -102 7 -2 70 10 140 25 85 19 126 25 123
17 -4 -11 -99 -147 -226 -322 l-59 -82 47 26 c184 103 185 103 214 178 15 39
31 69 37 68 11 -3 101 -65 154 -108 21 -16 93 -93 161 -170 92 -105 140 -169
188 -255 112 -196 144 -269 198 -445 46 -153 51 -178 48 -245 -3 -72 -6 -79
-55 -153 -42 -64 -53 -89 -58 -135 -3 -31 -15 -133 -27 -227 -20 -163 -23
-173 -64 -250 -23 -44 -62 -136 -85 -204 -42 -123 -42 -124 -116 -194 -41 -40
-95 -105 -121 -147 -25 -41 -50 -77 -54 -80 -3 -3 -11 -18 -17 -33 -7 -18 -18
-27 -32 -27 -12 0 -19 -3 -16 -7 12 -11 -154 -104 -248 -139 -49 -19 -98 -38
-107 -44 -10 -5 -24 -10 -33 -10 -8 0 -29 -6 -47 -14 -69 -28 -109 -41 -150
-45 -5 -1 -26 -17 -47 -37 -26 -23 -50 -36 -70 -36 -17 -1 -31 -5 -31 -9 0 -4
-18 -8 -39 -7 -43 0 -64 -8 -56 -23 9 -13 -9 -11 -23 3 -9 9 -15 8 -27 -8 -8
-10 -15 -15 -15 -10 0 5 -9 -3 -21 -18 -18 -23 -23 -25 -37 -14 -9 7 -13 8 -9
2 4 -7 -24 -11 -85 -12 -50 -2 -95 -5 -99 -8 -5 -3 -12 2 -15 10 -5 12 -10 13
-26 5 -10 -6 -24 -8 -31 -5 -7 2 -4 5 5 5 11 1 15 6 12 16 -5 12 -10 13 -20 5
-13 -12 -54 2 -54 18 0 4 -35 7 -78 7 -62 0 -80 3 -90 18 -7 9 -17 15 -22 12
-4 -3 -10 -1 -12 4 -3 8 -125 30 -196 36 -12 1 -35 14 -51 29 -21 20 -54 33
-132 52 -156 38 -346 112 -388 153 -20 18 -36 31 -37 30 0 -2 -7 3 -16 11 -8
8 -13 21 -10 29 3 8 0 11 -5 8 -5 -3 -20 7 -33 24 -14 16 -30 29 -37 29 -6 0
-15 5 -19 12 -5 7 -3 8 6 3 8 -5 11 -4 6 3 -4 6 -13 9 -20 6 -9 -3 -29 18 -55
58 -22 35 -76 99 -119 143 -77 78 -80 83 -117 190 -21 61 -59 153 -86 205 -46
92 -48 100 -68 260 -11 91 -22 192 -26 225 -3 36 -13 67 -24 80 -10 11 -34 48
-54 81 -55 91 -52 151 14 370 50 166 82 237 202 456 56 102 243 328 336 406
51 43 171 126 175 120 1 -1 10 -30 21 -62 24 -74 35 -87 115 -132 36 -20 85
-48 109 -62 l44 -25 -44 63 c-24 34 -54 77 -66 94 -12 17 -57 81 -101 141 -44
61 -76 111 -71 113 7 3 216 -41 257 -53 6 -3 12 0 12 5 0 7 -487 609 -568 703
-14 15 -14 22 -3 50 8 18 14 42 16 54 1 13 5 26 10 30 4 5 5 2 0 -6 -5 -10 -4
-12 4 -7 14 9 5 26 -15 26 -12 0 -12 4 -4 20 9 17 7 28 -10 55 -14 22 -17 36
-10 40 7 5 5 11 -6 19 -11 8 -14 18 -9 26 5 9 4 11 -3 6 -7 -4 -12 -3 -12 3 0
5 -5 22 -12 38 -6 15 -11 31 -10 36 1 4 -2 7 -7 7 -4 0 -6 11 -3 25 2 14 0 25
-6 25 -6 0 -14 16 -18 35 -3 19 -10 32 -15 29 -5 -3 -9 -1 -9 5 0 5 5 11 11
13 6 2 -15 31 -47 63 -32 33 -58 65 -59 70 0 6 -6 21 -12 35 -6 14 -18 48 -26
75 -8 28 -27 92 -43 143 l-29 92 -51 0 -51 0 -35 73 c-37 77 -62 142 -83 222
-7 28 -18 62 -24 76 -11 29 9 101 35 130 8 9 14 21 12 27 -2 6 5 17 15 24 18
14 17 22 -27 234 -43 210 -44 223 -31 267 8 25 19 81 24 123 12 83 52 210 73
229 7 7 77 35 156 63 113 41 155 52 204 52 57 0 60 1 46 18 -20 21 -118 218
-124 245 -2 11 -26 60 -54 109 -33 57 -53 105 -56 136 -4 26 -12 70 -19 97 -7
28 -20 86 -30 130 -34 167 -48 220 -59 227 -8 6 -8 8 1 8 7 0 9 9 5 22 -5 19
-6 20 -12 4 -4 -11 -11 5 -22 48 -14 59 -14 65 0 54 13 -11 14 -10 3 10 -6 12
-17 22 -23 22 -5 0 -8 9 -5 20 3 11 2 20 -2 20 -24 0 -47 254 -101 1140 -11
184 -32 442 -46 574 l-24 239 25 39 c23 34 66 58 443 248 229 115 418 209 419
209 1 1 120 -74 263 -165z m3764 -5814 c79 -157 146 -300 149 -318 6 -28 2
-37 -21 -57 -15 -14 -32 -25 -38 -25 -6 0 -17 -7 -24 -15 -7 -8 -21 -15 -32
-15 -10 0 -21 -7 -24 -15 -3 -8 -16 -17 -27 -21 -12 -4 -35 -18 -51 -31 -24
-20 -31 -22 -42 -11 -28 28 -435 761 -430 774 3 7 36 29 73 48 74 38 203 154
203 183 1 22 72 -113 264 -497z m-5517 392 c41 -35 102 -76 134 -93 33 -16 59
-34 59 -40 0 -12 -388 -703 -422 -751 -23 -33 -32 -34 -58 -8 -12 12 -31 25
-43 31 -35 16 -65 34 -85 52 -10 10 -25 17 -33 17 -8 1 -24 9 -37 20 -19 16
-22 25 -16 57 4 28 356 742 402 818 3 5 10 -2 14 -15 5 -14 43 -53 85 -88z
m1208 -290 c-3 -3 -11 0 -18 7 -9 10 -8 11 6 5 10 -3 15 -9 12 -12z m34 -86
c-3 -3 -11 5 -18 17 -13 21 -12 21 5 5 10 -10 16 -20 13 -22z m-1869 -1031
c31 -8 99 -15 155 -15 l100 0 13 -28 c6 -16 21 -98 32 -183 11 -85 29 -224 40
-309 54 -418 53 -401 33 -441 l-17 -36 -81 -6 c-71 -5 -290 15 -303 27 -4 4
-16 436 -24 874 -2 72 -3 132 -3 132 0 0 25 -7 55 -15z m6467 -332 c-4 -192
-11 -418 -15 -503 l-7 -155 -80 -12 c-88 -13 -210 -16 -266 -7 -27 5 -40 14
-53 38 -19 35 -17 66 19 331 8 61 20 151 25 200 9 74 27 197 45 310 12 78 18
101 25 109 5 5 53 8 107 8 58 -1 114 5 138 12 76 26 71 55 62 -331z m-3401
-2685 c19 -23 19 -23 -2 -5 -11 9 -24 14 -29 10 -4 -5 -5 -2 -1 5 9 16 10 16
32 -10z"/>
<path d="M3599 9452 c-1 -15 -1 -45 0 -67 1 -22 1 -56 1 -75 -1 -19 -1 -39 -1
-45 0 -5 2 -188 5 -405 9 -705 14 -935 20 -950 3 -8 8 -33 10 -55 3 -22 7 -53
10 -70 3 -16 8 -52 11 -80 3 -27 8 -66 11 -85 3 -19 7 -50 9 -67 2 -18 6 -46
10 -63 4 -17 9 -47 11 -68 2 -20 6 -46 8 -57 2 -11 4 -34 5 -51 l1 -32 78 -7
c42 -4 86 -9 97 -10 23 -3 153 -15 205 -20 103 -9 173 -16 240 -23 85 -10 884
-8 915 1 11 3 54 9 95 12 103 9 261 24 315 30 11 1 55 6 98 10 l77 7 1 32 c1
17 3 40 5 51 2 11 6 37 8 57 2 21 7 51 11 68 4 17 8 45 10 63 2 17 6 48 9 67
3 19 8 58 11 85 3 28 8 64 11 80 3 17 7 50 10 74 2 24 7 48 11 54 6 10 10 218
19 947 2 217 5 400 5 405 0 6 0 26 0 45 -1 19 -1 53 0 75 0 22 0 52 0 66 l-1
27 -1170 0 -1170 0 -1 -26z m888 -427 c61 -27 130 -93 158 -150 16 -31 20 -60
20 -135 0 -85 -3 -100 -27 -142 -63 -106 -166 -163 -294 -162 -90 0 -164 34
-228 105 -59 65 -80 129 -74 223 14 222 240 354 445 261z m815 9 c107 -35 188
-147 196 -270 6 -97 -15 -158 -79 -228 -119 -130 -316 -139 -448 -20 -79 71
-96 110 -96 224 0 105 11 138 70 207 84 98 222 132 357 87z m-401 -790 c136
-40 251 -135 284 -235 39 -117 -2 -235 -103 -296 -68 -40 -144 -53 -312 -53
-73 0 -162 5 -196 11 -86 15 -160 61 -199 123 -27 44 -30 58 -30 130 0 70 4
87 27 127 95 162 336 250 529 193z"/>
<path d="M3755 6720 c3 -5 11 -10 16 -10 6 0 7 5 4 10 -3 6 -11 10 -16 10 -6
0 -7 -4 -4 -10z"/>
<path d="M3796 6705 c-6 -16 9 -29 24 -20 14 9 52 -4 45 -16 -4 -5 5 -9 19 -9
27 0 35 -15 14 -23 -12 -5 36 -11 56 -8 5 1 4 -5 -4 -13 -10 -14 -10 -16 6
-17 11 -1 22 -1 26 0 4 0 5 -5 2 -13 -3 -9 6 -15 28 -19 18 -3 72 -17 120 -30
l86 -25 -1 34 c-1 18 3 32 8 31 6 -1 10 -12 10 -24 -1 -13 2 -23 5 -23 3 0 64
21 135 46 72 26 148 53 170 60 l40 14 -68 -5 c-37 -3 -101 -8 -141 -12 -54 -4
-99 0 -172 15 -54 12 -126 24 -159 27 -52 6 -150 23 -221 40 -14 3 -24 -1 -28
-10z"/>
<path d="M5560 6684 c-36 -7 -90 -15 -119 -18 -94 -10 -89 -5 -107 -110 -6
-33 -4 -38 9 -33 8 3 33 11 56 18 23 7 41 18 41 24 0 7 7 18 15 25 11 9 15 9
15 1 0 -9 5 -9 20 -1 11 6 19 14 19 18 -6 35 2 42 45 42 26 0 48 6 56 15 7 8
21 15 31 15 11 0 19 5 19 10 0 12 -17 11 -100 -6z"/>
<path d="M5115 6595 c88 -30 168 -58 178 -61 14 -5 12 4 -13 37 l-31 43 22 8
c13 5 28 7 34 4 7 -2 18 -1 25 4 7 4 -37 7 -96 6 -60 0 -147 2 -194 6 l-85 8
160 -55z"/>
<path d="M2980 5741 c0 -6 4 -13 10 -16 6 -3 7 1 4 9 -7 18 -14 21 -14 7z"/>
<path d="M3000 5680 c0 -5 5 -10 11 -10 5 0 7 5 4 10 -3 6 -8 10 -11 10 -2 0
-4 -4 -4 -10z"/>
</g>
</svg>
