<?xml version="1.0" standalone="no"?>
<!DOCTYPE svg PUBLIC "-//W3C//DTD SVG 20010904//EN"
 "http://www.w3.org/TR/2001/REC-SVG-20010904/DTD/svg10.dtd">
<svg version="1.0" xmlns="http://www.w3.org/2000/svg"
 width="200.000000pt" height="200.000000pt" viewBox="0 0 200.000000 200.000000"
 preserveAspectRatio="xMidYMid meet">

<g transform="translate(0.000000,200.000000) scale(0.100000,-0.100000)"
fill="#000000" stroke="none">
<path d="M75 1775 l-25 -24 0 -301 0 -301 25 -24 24 -25 454 0 454 0 21 23
c22 23 22 29 22 329 l0 307 -26 20 c-26 21 -37 21 -476 21 l-449 0 -24 -25z
m270 -115 l100 -69 3 70 c3 61 5 69 23 69 19 0 20 -6 17 -107 l-3 -108 -182
-3 c-178 -2 -183 -2 -183 18 0 19 6 20 87 20 l86 0 -86 61 c-70 48 -87 65 -87
85 0 24 7 20 126 -61 93 -64 132 -85 152 -83 23 3 14 11 -70 66 -52 34 -110
74 -129 87 l-33 25 40 0 c32 -1 58 -14 139 -70z m307 0 l3 -70 106 71 c87 57
113 70 140 67 31 -3 26 -7 -96 -88 -109 -72 -125 -85 -102 -88 19 -2 58 18
144 76 155 103 143 97 143 69 0 -19 -18 -36 -92 -86 l-93 -61 93 0 c84 0 93
-2 90 -17 -3 -16 -21 -18 -186 -21 l-182 -2 0 110 c0 90 3 110 15 110 11 0 15
-17 17 -70z m-162 -385 c0 -98 -1 -105 -20 -105 -18 0 -20 7 -20 70 l0 70
-105 -70 c-83 -56 -112 -70 -142 -70 -37 0 -34 3 92 87 107 72 126 88 106 91
-17 3 -57 -19 -139 -75 -152 -104 -142 -99 -142 -69 0 21 16 36 87 83 l86 58
-86 3 c-68 2 -87 6 -87 17 0 13 29 15 185 15 l185 0 0 -105z m500 90 c0 -11
-19 -15 -90 -17 l-89 -3 87 -60 c59 -41 88 -68 90 -83 2 -12 0 -22 -3 -22 -4
0 -64 39 -135 86 -90 61 -134 85 -151 82 -20 -3 0 -19 106 -91 126 -84 129
-87 92 -87 -30 0 -59 14 -142 70 l-105 70 0 -70 c0 -56 -3 -70 -15 -70 -12 0
-15 18 -15 105 l0 105 185 0 c156 0 185 -2 185 -15z"/>
<path d="M1226 1634 c-22 -21 -20 -40 6 -58 18 -13 55 -16 190 -16 l168 0 0
-180 c0 -99 -4 -180 -8 -180 -4 0 -28 20 -52 45 -24 25 -51 45 -60 45 -22 0
-40 -20 -40 -45 0 -27 168 -195 195 -195 22 0 205 177 205 197 0 16 -29 43
-46 43 -8 0 -37 -21 -64 -46 l-50 -47 0 215 c0 153 -3 217 -12 226 -9 9 -70
12 -214 12 -171 0 -205 -2 -218 -16z"/>
<path d="M262 866 c-98 -98 -106 -116 -65 -143 21 -14 25 -12 71 31 27 25 52
46 56 46 3 0 6 -97 6 -215 0 -202 1 -215 19 -225 12 -6 99 -10 214 -10 175 0
195 2 210 18 21 23 21 36 1 56 -13 13 -44 16 -185 16 l-169 0 0 181 0 182 50
-47 c54 -51 53 -50 81 -36 39 21 23 53 -75 148 -51 51 -99 92 -107 92 -7 0
-55 -42 -107 -94z"/>
<path d="M962 888 c-17 -17 -17 -659 0 -676 9 -9 130 -12 484 -12 416 0 474 2
488 16 14 13 16 58 16 338 0 237 -3 325 -12 334 -17 17 -959 17 -976 0z m658
-338 l0 -280 -170 0 -170 0 0 280 0 280 170 0 170 0 0 -280z"/>
</g>
</svg>
